<?xml version="1.0" standalone="no"?><!DOCTYPE svg PUBLIC "-//W3C//DTD SVG 1.1//EN" "http://www.w3.org/Graphics/SVG/1.1/DTD/svg11.dtd"><svg t="1527695702963" class="icon" style="" viewBox="0 0 1024 1024" version="1.1" xmlns="http://www.w3.org/2000/svg" p-id="1096" xmlns:xlink="http://www.w3.org/1999/xlink" width="128" height="128"><defs><style type="text/css"></style></defs><path d="M433.705308 849.25307c177.410596 0 306.883389-137.14759 334.669222-334.704015L71.137689 514.549056C98.919429 712.10548 256.306992 849.25307 433.705308 849.25307L433.705308 849.25307zM768.37453 458.775798c0.737804-54.827723 0.539282-32.976042 0-83.678818L71.137689 375.09698c0.121773 48.922223 0.121773 29.170366 0 83.678818L768.37453 458.775798 768.37453 458.775798zM947.910533 507.254929c-15.326057-67.039859-72.192206-114.65532-152.758126-131.49587 0.412392 9.06547 0.685615 18.194384 0.685615 27.405163 0 13.264095 1.270946 42.626843 0.429789 55.617715 41.285289 15.692401 64.744583 28.369118 73.42836 66.337871 16.530488 72.213695-51.122331 149.272745-151.086044 172.148755-3.373841 0.766456-6.704702 1.306762-10.035564 1.940189-15.092743 23.839965-31.952736 45.809325-50.305733 65.635883 23.260773-0.61603 47.192835-3.403516 71.39812-8.961092C874.046245 722.871685 971.770963 611.526761 947.910533 507.254929L947.910533 507.254929zM71.137689 877.134071c-1.50426 2.455935-0.121773 25.390273 0 27.89942 1.782599 35.290761 156.833955 55.768141 362.567619 55.768141 205.725478 0 362.550223-18.72855 362.550223-55.768141 0-2.509147-1.985214-28.062126 0-27.89942L71.137689 877.134071 71.137689 877.134071zM492.764402 269.047666c0 59.612703-111.745037 74.508971-111.745037 74.508971s193.275935 0 193.275935-74.508971S362.407472 209.44008 362.407472 149.844773c0-59.607586 148.981103-89.400123 148.981103-89.400123s-246.788709 0-246.788709 104.296391C264.592702 254.151397 492.764402 224.352721 492.764402 269.047666L492.764402 269.047666zM492.764402 269.047666" p-id="1097" fill="#1296db"></path></svg>